<svg xmlns="http://www.w3.org/2000/svg" style="display:none">
  <symbol id="copilot-hub-hub" viewBox="0 0 1024 1024">
    <title>Copilot Hub Hub icon</title>
    <path d="M 383.2 81.9 L 369.8 85.0 L 356.5 93.3 L 250.3 201.4 L 244.2 214.8 L 243.1 232.3 L 249.3 247.8 L 316.3 315.8 L 333.8 324.0 L 349.2 324.0 L 362.6 318.9 L 432.7 249.8 L 438.9 238.5 L 440.9 221.0 L 435.8 205.5 L 369.8 138.6 L 369.8 132.4 L 381.2 120.0 L 388.4 118.0 L 451.2 118.0 L 457.4 120.0 L 744.8 410.5 L 744.8 612.4 L 741.7 619.6 L 461.5 901.9 L 454.3 905.0 L 386.3 905.0 L 370.9 892.6 L 374.0 882.3 L 429.6 826.7 L 437.8 811.3 L 438.9 795.8 L 431.6 777.3 L 361.6 707.2 L 347.2 702.1 L 335.8 702.1 L 321.4 707.2 L 249.3 781.4 L 245.2 792.7 L 245.2 807.1 L 250.3 821.6 L 358.5 931.8 L 381.2 941.0 L 459.5 941.0 L 471.8 938.0 L 484.2 930.7 L 773.7 637.2 L 779.8 620.7 L 779.8 404.4 L 771.6 383.7 L 483.2 93.3 L 469.8 85.0 L 456.4 81.9 Z
M 366.8 504.3 L 366.8 520.8 L 372.9 534.1 L 431.6 593.9 L 448.1 601.1 L 465.6 600.1 L 475.9 594.9 L 534.7 536.2 L 540.8 526.9 L 547.0 526.9 L 553.2 537.2 L 609.9 593.9 L 625.3 601.1 L 640.8 601.1 L 654.2 594.9 L 712.9 536.2 L 721.1 515.6 L 719.1 500.2 L 713.9 489.9 L 655.2 430.1 L 638.7 422.9 L 625.3 422.9 L 610.9 429.1 L 552.2 488.8 L 547.0 497.1 L 539.8 497.1 L 535.7 489.9 L 478.0 431.1 L 464.6 423.9 L 444.0 423.9 L 434.7 428.0 L 374.0 488.8 Z
M 493.5 257.0 L 312.2 443.5 L 306.0 462.0 L 306.0 568.1 L 315.2 590.8 L 493.5 767.0 L 496.5 767.0 L 519.2 744.3 L 519.2 741.2 L 343.1 567.1 L 341.0 541.4 L 343.1 462.0 L 519.2 282.8 Z
M 336.9 159.2 L 346.1 159.2 L 408.0 221.0 L 408.0 230.3 L 346.1 292.1 L 336.9 292.1 L 275.1 229.2 L 275.1 221.0 Z
M 336.9 735.0 L 346.1 735.0 L 406.9 796.8 L 405.9 805.1 L 346.1 865.9 L 334.8 863.8 L 277.1 805.1 L 277.1 795.8 Z
M 451.2 453.8 L 459.5 454.8 L 512.0 507.4 L 512.0 516.6 L 458.4 570.2 L 450.2 570.2 L 396.6 516.6 L 396.6 508.4 Z
M 629.4 453.8 L 637.7 454.8 L 690.2 508.4 L 690.2 516.6 L 636.6 570.2 L 628.4 570.2 L 574.8 515.6 L 574.8 508.4 Z" fill="currentColor" fill-rule="evenodd" clip-rule="evenodd"/>
  </symbol>
  <symbol id="copilot-hub-agents" viewBox="0 0 1024 1024">
    <title>Copilot Hub Agents icon</title>
    <path d="M 383.2 81.9 L 369.8 85.0 L 356.5 93.3 L 250.3 201.4 L 244.2 214.8 L 243.1 232.3 L 249.3 247.8 L 316.3 315.8 L 333.8 324.0 L 349.2 324.0 L 362.6 318.9 L 432.7 249.8 L 438.9 238.5 L 440.9 221.0 L 435.8 205.5 L 369.8 138.6 L 369.8 132.4 L 381.2 120.0 L 388.4 118.0 L 451.2 118.0 L 457.4 120.0 L 744.8 410.5 L 744.8 612.4 L 741.7 619.6 L 461.5 901.9 L 454.3 905.0 L 386.3 905.0 L 370.9 892.6 L 374.0 882.3 L 429.6 826.7 L 437.8 811.3 L 438.9 795.8 L 431.6 777.3 L 361.6 707.2 L 347.2 702.1 L 335.8 702.1 L 321.4 707.2 L 249.3 781.4 L 245.2 792.7 L 245.2 807.1 L 250.3 821.6 L 358.5 931.8 L 381.2 941.0 L 459.5 941.0 L 471.8 938.0 L 484.2 930.7 L 773.7 637.2 L 779.8 620.7 L 779.8 404.4 L 771.6 383.7 L 483.2 93.3 L 469.8 85.0 L 456.4 81.9 Z
M 493.5 257.0 L 312.2 443.5 L 306.0 462.0 L 306.0 568.1 L 315.2 590.8 L 493.5 767.0 L 496.5 767.0 L 519.2 744.3 L 519.2 741.2 L 343.1 567.1 L 341.0 541.4 L 343.1 462.0 L 519.2 282.8 Z
M 336.9 159.2 L 346.1 159.2 L 408.0 221.0 L 408.0 230.3 L 346.1 292.1 L 336.9 292.1 L 275.1 229.2 L 275.1 221.0 Z
M 336.9 735.0 L 346.1 735.0 L 406.9 796.8 L 405.9 805.1 L 346.1 865.9 L 334.8 863.8 L 277.1 805.1 L 277.1 795.8 Z" fill="currentColor" fill-rule="evenodd" clip-rule="evenodd"/>
<g fill="none" stroke="currentColor" stroke-width="34" stroke-linecap="round" stroke-linejoin="round">
<circle cx="574" cy="480" r="25"/>
<path d="M520 574 C532 530 616 530 628 574"/>
</g>
  </symbol>
  <symbol id="copilot-hub-create" viewBox="0 0 1024 1024">
    <title>Copilot Hub Create icon</title>
    <path d="M 383.2 81.9 L 369.8 85.0 L 356.5 93.3 L 250.3 201.4 L 244.2 214.8 L 243.1 232.3 L 249.3 247.8 L 316.3 315.8 L 333.8 324.0 L 349.2 324.0 L 362.6 318.9 L 432.7 249.8 L 438.9 238.5 L 440.9 221.0 L 435.8 205.5 L 369.8 138.6 L 369.8 132.4 L 381.2 120.0 L 388.4 118.0 L 451.2 118.0 L 457.4 120.0 L 744.8 410.5 L 744.8 612.4 L 741.7 619.6 L 461.5 901.9 L 454.3 905.0 L 386.3 905.0 L 370.9 892.6 L 374.0 882.3 L 429.6 826.7 L 437.8 811.3 L 438.9 795.8 L 431.6 777.3 L 361.6 707.2 L 347.2 702.1 L 335.8 702.1 L 321.4 707.2 L 249.3 781.4 L 245.2 792.7 L 245.2 807.1 L 250.3 821.6 L 358.5 931.8 L 381.2 941.0 L 459.5 941.0 L 471.8 938.0 L 484.2 930.7 L 773.7 637.2 L 779.8 620.7 L 779.8 404.4 L 771.6 383.7 L 483.2 93.3 L 469.8 85.0 L 456.4 81.9 Z
M 493.5 257.0 L 312.2 443.5 L 306.0 462.0 L 306.0 568.1 L 315.2 590.8 L 493.5 767.0 L 496.5 767.0 L 519.2 744.3 L 519.2 741.2 L 343.1 567.1 L 341.0 541.4 L 343.1 462.0 L 519.2 282.8 Z
M 336.9 159.2 L 346.1 159.2 L 408.0 221.0 L 408.0 230.3 L 346.1 292.1 L 336.9 292.1 L 275.1 229.2 L 275.1 221.0 Z
M 336.9 735.0 L 346.1 735.0 L 406.9 796.8 L 405.9 805.1 L 346.1 865.9 L 334.8 863.8 L 277.1 805.1 L 277.1 795.8 Z" fill="currentColor" fill-rule="evenodd" clip-rule="evenodd"/>
<g fill="none" stroke="currentColor" stroke-width="34" stroke-linecap="round" stroke-linejoin="round">
<path d="M574 448 V576"/>
<path d="M510 512 H638"/>
</g>
  </symbol>
  <symbol id="copilot-hub-explore" viewBox="0 0 1024 1024">
    <title>Copilot Hub Explore icon</title>
    <path d="M 383.2 81.9 L 369.8 85.0 L 356.5 93.3 L 250.3 201.4 L 244.2 214.8 L 243.1 232.3 L 249.3 247.8 L 316.3 315.8 L 333.8 324.0 L 349.2 324.0 L 362.6 318.9 L 432.7 249.8 L 438.9 238.5 L 440.9 221.0 L 435.8 205.5 L 369.8 138.6 L 369.8 132.4 L 381.2 120.0 L 388.4 118.0 L 451.2 118.0 L 457.4 120.0 L 744.8 410.5 L 744.8 612.4 L 741.7 619.6 L 461.5 901.9 L 454.3 905.0 L 386.3 905.0 L 370.9 892.6 L 374.0 882.3 L 429.6 826.7 L 437.8 811.3 L 438.9 795.8 L 431.6 777.3 L 361.6 707.2 L 347.2 702.1 L 335.8 702.1 L 321.4 707.2 L 249.3 781.4 L 245.2 792.7 L 245.2 807.1 L 250.3 821.6 L 358.5 931.8 L 381.2 941.0 L 459.5 941.0 L 471.8 938.0 L 484.2 930.7 L 773.7 637.2 L 779.8 620.7 L 779.8 404.4 L 771.6 383.7 L 483.2 93.3 L 469.8 85.0 L 456.4 81.9 Z
M 493.5 257.0 L 312.2 443.5 L 306.0 462.0 L 306.0 568.1 L 315.2 590.8 L 493.5 767.0 L 496.5 767.0 L 519.2 744.3 L 519.2 741.2 L 343.1 567.1 L 341.0 541.4 L 343.1 462.0 L 519.2 282.8 Z
M 336.9 159.2 L 346.1 159.2 L 408.0 221.0 L 408.0 230.3 L 346.1 292.1 L 336.9 292.1 L 275.1 229.2 L 275.1 221.0 Z
M 336.9 735.0 L 346.1 735.0 L 406.9 796.8 L 405.9 805.1 L 346.1 865.9 L 334.8 863.8 L 277.1 805.1 L 277.1 795.8 Z" fill="currentColor" fill-rule="evenodd" clip-rule="evenodd"/>
<g fill="none" stroke="currentColor" stroke-width="34" stroke-linecap="round" stroke-linejoin="round">
<path d="M532 566 L562 462 L626 490 L596 594 Z"/>
<path d="M562 462 L596 594"/>
</g>
  </symbol>
  <symbol id="copilot-hub-chat" viewBox="0 0 1024 1024">
    <title>Copilot Hub Chat icon</title>
    <path d="M 383.2 81.9 L 369.8 85.0 L 356.5 93.3 L 250.3 201.4 L 244.2 214.8 L 243.1 232.3 L 249.3 247.8 L 316.3 315.8 L 333.8 324.0 L 349.2 324.0 L 362.6 318.9 L 432.7 249.8 L 438.9 238.5 L 440.9 221.0 L 435.8 205.5 L 369.8 138.6 L 369.8 132.4 L 381.2 120.0 L 388.4 118.0 L 451.2 118.0 L 457.4 120.0 L 744.8 410.5 L 744.8 612.4 L 741.7 619.6 L 461.5 901.9 L 454.3 905.0 L 386.3 905.0 L 370.9 892.6 L 374.0 882.3 L 429.6 826.7 L 437.8 811.3 L 438.9 795.8 L 431.6 777.3 L 361.6 707.2 L 347.2 702.1 L 335.8 702.1 L 321.4 707.2 L 249.3 781.4 L 245.2 792.7 L 245.2 807.1 L 250.3 821.6 L 358.5 931.8 L 381.2 941.0 L 459.5 941.0 L 471.8 938.0 L 484.2 930.7 L 773.7 637.2 L 779.8 620.7 L 779.8 404.4 L 771.6 383.7 L 483.2 93.3 L 469.8 85.0 L 456.4 81.9 Z
M 493.5 257.0 L 312.2 443.5 L 306.0 462.0 L 306.0 568.1 L 315.2 590.8 L 493.5 767.0 L 496.5 767.0 L 519.2 744.3 L 519.2 741.2 L 343.1 567.1 L 341.0 541.4 L 343.1 462.0 L 519.2 282.8 Z
M 336.9 159.2 L 346.1 159.2 L 408.0 221.0 L 408.0 230.3 L 346.1 292.1 L 336.9 292.1 L 275.1 229.2 L 275.1 221.0 Z
M 336.9 735.0 L 346.1 735.0 L 406.9 796.8 L 405.9 805.1 L 346.1 865.9 L 334.8 863.8 L 277.1 805.1 L 277.1 795.8 Z" fill="currentColor" fill-rule="evenodd" clip-rule="evenodd"/>
<g fill="none" stroke="currentColor" stroke-width="34" stroke-linecap="round" stroke-linejoin="round">
<path d="M506 490 C506 462 526 446 558 446 H626 C654 446 674 466 674 494 V532 C674 560 654 580 626 580 H572 L526 610 L536 580 H558 C526 580 506 560 506 532 Z"/>
<circle cx="558" cy="516" r="4" fill="currentColor" stroke="none"/>
<circle cx="588" cy="516" r="4" fill="currentColor" stroke="none"/>
<circle cx="618" cy="516" r="4" fill="currentColor" stroke="none"/>
</g>
  </symbol>
  <symbol id="copilot-hub-analytics" viewBox="0 0 1024 1024">
    <title>Copilot Hub Analytics icon</title>
    <path d="M 383.2 81.9 L 369.8 85.0 L 356.5 93.3 L 250.3 201.4 L 244.2 214.8 L 243.1 232.3 L 249.3 247.8 L 316.3 315.8 L 333.8 324.0 L 349.2 324.0 L 362.6 318.9 L 432.7 249.8 L 438.9 238.5 L 440.9 221.0 L 435.8 205.5 L 369.8 138.6 L 369.8 132.4 L 381.2 120.0 L 388.4 118.0 L 451.2 118.0 L 457.4 120.0 L 744.8 410.5 L 744.8 612.4 L 741.7 619.6 L 461.5 901.9 L 454.3 905.0 L 386.3 905.0 L 370.9 892.6 L 374.0 882.3 L 429.6 826.7 L 437.8 811.3 L 438.9 795.8 L 431.6 777.3 L 361.6 707.2 L 347.2 702.1 L 335.8 702.1 L 321.4 707.2 L 249.3 781.4 L 245.2 792.7 L 245.2 807.1 L 250.3 821.6 L 358.5 931.8 L 381.2 941.0 L 459.5 941.0 L 471.8 938.0 L 484.2 930.7 L 773.7 637.2 L 779.8 620.7 L 779.8 404.4 L 771.6 383.7 L 483.2 93.3 L 469.8 85.0 L 456.4 81.9 Z
M 493.5 257.0 L 312.2 443.5 L 306.0 462.0 L 306.0 568.1 L 315.2 590.8 L 493.5 767.0 L 496.5 767.0 L 519.2 744.3 L 519.2 741.2 L 343.1 567.1 L 341.0 541.4 L 343.1 462.0 L 519.2 282.8 Z
M 336.9 159.2 L 346.1 159.2 L 408.0 221.0 L 408.0 230.3 L 346.1 292.1 L 336.9 292.1 L 275.1 229.2 L 275.1 221.0 Z
M 336.9 735.0 L 346.1 735.0 L 406.9 796.8 L 405.9 805.1 L 346.1 865.9 L 334.8 863.8 L 277.1 805.1 L 277.1 795.8 Z" fill="currentColor" fill-rule="evenodd" clip-rule="evenodd"/>
<g fill="none" stroke="currentColor" stroke-width="34" stroke-linecap="round" stroke-linejoin="round">
<path d="M516 584 H652"/>
<path d="M532 584 V536"/>
<path d="M584 584 V492"/>
<path d="M636 584 V456"/>
</g>
  </symbol>
  <symbol id="copilot-hub-automations" viewBox="0 0 1024 1024">
    <title>Copilot Hub Automations icon</title>
    <path d="M 383.2 81.9 L 369.8 85.0 L 356.5 93.3 L 250.3 201.4 L 244.2 214.8 L 243.1 232.3 L 249.3 247.8 L 316.3 315.8 L 333.8 324.0 L 349.2 324.0 L 362.6 318.9 L 432.7 249.8 L 438.9 238.5 L 440.9 221.0 L 435.8 205.5 L 369.8 138.6 L 369.8 132.4 L 381.2 120.0 L 388.4 118.0 L 451.2 118.0 L 457.4 120.0 L 744.8 410.5 L 744.8 612.4 L 741.7 619.6 L 461.5 901.9 L 454.3 905.0 L 386.3 905.0 L 370.9 892.6 L 374.0 882.3 L 429.6 826.7 L 437.8 811.3 L 438.9 795.8 L 431.6 777.3 L 361.6 707.2 L 347.2 702.1 L 335.8 702.1 L 321.4 707.2 L 249.3 781.4 L 245.2 792.7 L 245.2 807.1 L 250.3 821.6 L 358.5 931.8 L 381.2 941.0 L 459.5 941.0 L 471.8 938.0 L 484.2 930.7 L 773.7 637.2 L 779.8 620.7 L 779.8 404.4 L 771.6 383.7 L 483.2 93.3 L 469.8 85.0 L 456.4 81.9 Z
M 493.5 257.0 L 312.2 443.5 L 306.0 462.0 L 306.0 568.1 L 315.2 590.8 L 493.5 767.0 L 496.5 767.0 L 519.2 744.3 L 519.2 741.2 L 343.1 567.1 L 341.0 541.4 L 343.1 462.0 L 519.2 282.8 Z
M 336.9 159.2 L 346.1 159.2 L 408.0 221.0 L 408.0 230.3 L 346.1 292.1 L 336.9 292.1 L 275.1 229.2 L 275.1 221.0 Z
M 336.9 735.0 L 346.1 735.0 L 406.9 796.8 L 405.9 805.1 L 346.1 865.9 L 334.8 863.8 L 277.1 805.1 L 277.1 795.8 Z" fill="currentColor" fill-rule="evenodd" clip-rule="evenodd"/>
<g fill="none" stroke="currentColor" stroke-width="34" stroke-linecap="round" stroke-linejoin="round">
<path d="M600 430 L518 536 H572 L542 624 L656 492 H594 Z"/>
</g>
  </symbol>
  <symbol id="copilot-hub-integrations" viewBox="0 0 1024 1024">
    <title>Copilot Hub Integrations icon</title>
    <path d="M 383.2 81.9 L 369.8 85.0 L 356.5 93.3 L 250.3 201.4 L 244.2 214.8 L 243.1 232.3 L 249.3 247.8 L 316.3 315.8 L 333.8 324.0 L 349.2 324.0 L 362.6 318.9 L 432.7 249.8 L 438.9 238.5 L 440.9 221.0 L 435.8 205.5 L 369.8 138.6 L 369.8 132.4 L 381.2 120.0 L 388.4 118.0 L 451.2 118.0 L 457.4 120.0 L 744.8 410.5 L 744.8 612.4 L 741.7 619.6 L 461.5 901.9 L 454.3 905.0 L 386.3 905.0 L 370.9 892.6 L 374.0 882.3 L 429.6 826.7 L 437.8 811.3 L 438.9 795.8 L 431.6 777.3 L 361.6 707.2 L 347.2 702.1 L 335.8 702.1 L 321.4 707.2 L 249.3 781.4 L 245.2 792.7 L 245.2 807.1 L 250.3 821.6 L 358.5 931.8 L 381.2 941.0 L 459.5 941.0 L 471.8 938.0 L 484.2 930.7 L 773.7 637.2 L 779.8 620.7 L 779.8 404.4 L 771.6 383.7 L 483.2 93.3 L 469.8 85.0 L 456.4 81.9 Z
M 493.5 257.0 L 312.2 443.5 L 306.0 462.0 L 306.0 568.1 L 315.2 590.8 L 493.5 767.0 L 496.5 767.0 L 519.2 744.3 L 519.2 741.2 L 343.1 567.1 L 341.0 541.4 L 343.1 462.0 L 519.2 282.8 Z
M 336.9 159.2 L 346.1 159.2 L 408.0 221.0 L 408.0 230.3 L 346.1 292.1 L 336.9 292.1 L 275.1 229.2 L 275.1 221.0 Z
M 336.9 735.0 L 346.1 735.0 L 406.9 796.8 L 405.9 805.1 L 346.1 865.9 L 334.8 863.8 L 277.1 805.1 L 277.1 795.8 Z" fill="currentColor" fill-rule="evenodd" clip-rule="evenodd"/>
<g fill="none" stroke="currentColor" stroke-width="34" stroke-linecap="round" stroke-linejoin="round">
<path d="M536 452 V502"/>
<path d="M610 452 V502"/>
<path d="M512 502 H634 V542 C634 578 606 606 570 606 C534 606 506 578 506 542 V502"/>
<path d="M570 606 V650"/>
</g>
  </symbol>
  <symbol id="copilot-hub-knowledge" viewBox="0 0 1024 1024">
    <title>Copilot Hub Knowledge icon</title>
    <path d="M 383.2 81.9 L 369.8 85.0 L 356.5 93.3 L 250.3 201.4 L 244.2 214.8 L 243.1 232.3 L 249.3 247.8 L 316.3 315.8 L 333.8 324.0 L 349.2 324.0 L 362.6 318.9 L 432.7 249.8 L 438.9 238.5 L 440.9 221.0 L 435.8 205.5 L 369.8 138.6 L 369.8 132.4 L 381.2 120.0 L 388.4 118.0 L 451.2 118.0 L 457.4 120.0 L 744.8 410.5 L 744.8 612.4 L 741.7 619.6 L 461.5 901.9 L 454.3 905.0 L 386.3 905.0 L 370.9 892.6 L 374.0 882.3 L 429.6 826.7 L 437.8 811.3 L 438.9 795.8 L 431.6 777.3 L 361.6 707.2 L 347.2 702.1 L 335.8 702.1 L 321.4 707.2 L 249.3 781.4 L 245.2 792.7 L 245.2 807.1 L 250.3 821.6 L 358.5 931.8 L 381.2 941.0 L 459.5 941.0 L 471.8 938.0 L 484.2 930.7 L 773.7 637.2 L 779.8 620.7 L 779.8 404.4 L 771.6 383.7 L 483.2 93.3 L 469.8 85.0 L 456.4 81.9 Z
M 493.5 257.0 L 312.2 443.5 L 306.0 462.0 L 306.0 568.1 L 315.2 590.8 L 493.5 767.0 L 496.5 767.0 L 519.2 744.3 L 519.2 741.2 L 343.1 567.1 L 341.0 541.4 L 343.1 462.0 L 519.2 282.8 Z
M 336.9 159.2 L 346.1 159.2 L 408.0 221.0 L 408.0 230.3 L 346.1 292.1 L 336.9 292.1 L 275.1 229.2 L 275.1 221.0 Z
M 336.9 735.0 L 346.1 735.0 L 406.9 796.8 L 405.9 805.1 L 346.1 865.9 L 334.8 863.8 L 277.1 805.1 L 277.1 795.8 Z" fill="currentColor" fill-rule="evenodd" clip-rule="evenodd"/>
<g fill="none" stroke="currentColor" stroke-width="34" stroke-linecap="round" stroke-linejoin="round">
<path d="M508 466 C538 456 560 462 574 482 V602 C552 580 532 574 508 584 Z"/>
<path d="M574 482 C590 462 624 456 648 466 V584 C620 574 596 580 574 602 Z"/>
<path d="M574 482 V602"/>
</g>
  </symbol>
  <symbol id="copilot-hub-tools" viewBox="0 0 1024 1024">
    <title>Copilot Hub Tools icon</title>
    <path d="M 383.2 81.9 L 369.8 85.0 L 356.5 93.3 L 250.3 201.4 L 244.2 214.8 L 243.1 232.3 L 249.3 247.8 L 316.3 315.8 L 333.8 324.0 L 349.2 324.0 L 362.6 318.9 L 432.7 249.8 L 438.9 238.5 L 440.9 221.0 L 435.8 205.5 L 369.8 138.6 L 369.8 132.4 L 381.2 120.0 L 388.4 118.0 L 451.2 118.0 L 457.4 120.0 L 744.8 410.5 L 744.8 612.4 L 741.7 619.6 L 461.5 901.9 L 454.3 905.0 L 386.3 905.0 L 370.9 892.6 L 374.0 882.3 L 429.6 826.7 L 437.8 811.3 L 438.9 795.8 L 431.6 777.3 L 361.6 707.2 L 347.2 702.1 L 335.8 702.1 L 321.4 707.2 L 249.3 781.4 L 245.2 792.7 L 245.2 807.1 L 250.3 821.6 L 358.5 931.8 L 381.2 941.0 L 459.5 941.0 L 471.8 938.0 L 484.2 930.7 L 773.7 637.2 L 779.8 620.7 L 779.8 404.4 L 771.6 383.7 L 483.2 93.3 L 469.8 85.0 L 456.4 81.9 Z
M 493.5 257.0 L 312.2 443.5 L 306.0 462.0 L 306.0 568.1 L 315.2 590.8 L 493.5 767.0 L 496.5 767.0 L 519.2 744.3 L 519.2 741.2 L 343.1 567.1 L 341.0 541.4 L 343.1 462.0 L 519.2 282.8 Z
M 336.9 159.2 L 346.1 159.2 L 408.0 221.0 L 408.0 230.3 L 346.1 292.1 L 336.9 292.1 L 275.1 229.2 L 275.1 221.0 Z
M 336.9 735.0 L 346.1 735.0 L 406.9 796.8 L 405.9 805.1 L 346.1 865.9 L 334.8 863.8 L 277.1 805.1 L 277.1 795.8 Z" fill="currentColor" fill-rule="evenodd" clip-rule="evenodd"/>
<g fill="none" stroke="currentColor" stroke-width="34" stroke-linecap="round" stroke-linejoin="round">
<path d="M638 454 C612 444 584 456 574 482 C568 496 570 514 580 528 L512 596 C500 608 500 626 512 638 C524 650 542 650 554 638 L622 570 C636 580 654 582 670 574 C694 562 706 534 696 510 L662 544 L620 532 L608 490 Z"/>
</g>
  </symbol>
  <symbol id="copilot-hub-settings" viewBox="0 0 1024 1024">
    <title>Copilot Hub Settings icon</title>
    <path d="M 383.2 81.9 L 369.8 85.0 L 356.5 93.3 L 250.3 201.4 L 244.2 214.8 L 243.1 232.3 L 249.3 247.8 L 316.3 315.8 L 333.8 324.0 L 349.2 324.0 L 362.6 318.9 L 432.7 249.8 L 438.9 238.5 L 440.9 221.0 L 435.8 205.5 L 369.8 138.6 L 369.8 132.4 L 381.2 120.0 L 388.4 118.0 L 451.2 118.0 L 457.4 120.0 L 744.8 410.5 L 744.8 612.4 L 741.7 619.6 L 461.5 901.9 L 454.3 905.0 L 386.3 905.0 L 370.9 892.6 L 374.0 882.3 L 429.6 826.7 L 437.8 811.3 L 438.9 795.8 L 431.6 777.3 L 361.6 707.2 L 347.2 702.1 L 335.8 702.1 L 321.4 707.2 L 249.3 781.4 L 245.2 792.7 L 245.2 807.1 L 250.3 821.6 L 358.5 931.8 L 381.2 941.0 L 459.5 941.0 L 471.8 938.0 L 484.2 930.7 L 773.7 637.2 L 779.8 620.7 L 779.8 404.4 L 771.6 383.7 L 483.2 93.3 L 469.8 85.0 L 456.4 81.9 Z
M 493.5 257.0 L 312.2 443.5 L 306.0 462.0 L 306.0 568.1 L 315.2 590.8 L 493.5 767.0 L 496.5 767.0 L 519.2 744.3 L 519.2 741.2 L 343.1 567.1 L 341.0 541.4 L 343.1 462.0 L 519.2 282.8 Z
M 336.9 159.2 L 346.1 159.2 L 408.0 221.0 L 408.0 230.3 L 346.1 292.1 L 336.9 292.1 L 275.1 229.2 L 275.1 221.0 Z
M 336.9 735.0 L 346.1 735.0 L 406.9 796.8 L 405.9 805.1 L 346.1 865.9 L 334.8 863.8 L 277.1 805.1 L 277.1 795.8 Z" fill="currentColor" fill-rule="evenodd" clip-rule="evenodd"/>
<g fill="none" stroke="currentColor" stroke-width="34" stroke-linecap="round" stroke-linejoin="round">
<circle cx="574" cy="512" r="34"/>
<path d="M574 436 V466"/>
<path d="M574 558 V588"/>
<path d="M498 512 H528"/>
<path d="M620 512 H650"/>
<path d="M520 458 L542 480"/>
<path d="M608 546 L630 568"/>
<path d="M630 458 L608 480"/>
<path d="M542 546 L520 568"/>
</g>
  </symbol>
  <symbol id="copilot-hub-security" viewBox="0 0 1024 1024">
    <title>Copilot Hub Security icon</title>
    <path d="M 383.2 81.9 L 369.8 85.0 L 356.5 93.3 L 250.3 201.4 L 244.2 214.8 L 243.1 232.3 L 249.3 247.8 L 316.3 315.8 L 333.8 324.0 L 349.2 324.0 L 362.6 318.9 L 432.7 249.8 L 438.9 238.5 L 440.9 221.0 L 435.8 205.5 L 369.8 138.6 L 369.8 132.4 L 381.2 120.0 L 388.4 118.0 L 451.2 118.0 L 457.4 120.0 L 744.8 410.5 L 744.8 612.4 L 741.7 619.6 L 461.5 901.9 L 454.3 905.0 L 386.3 905.0 L 370.9 892.6 L 374.0 882.3 L 429.6 826.7 L 437.8 811.3 L 438.9 795.8 L 431.6 777.3 L 361.6 707.2 L 347.2 702.1 L 335.8 702.1 L 321.4 707.2 L 249.3 781.4 L 245.2 792.7 L 245.2 807.1 L 250.3 821.6 L 358.5 931.8 L 381.2 941.0 L 459.5 941.0 L 471.8 938.0 L 484.2 930.7 L 773.7 637.2 L 779.8 620.7 L 779.8 404.4 L 771.6 383.7 L 483.2 93.3 L 469.8 85.0 L 456.4 81.9 Z
M 493.5 257.0 L 312.2 443.5 L 306.0 462.0 L 306.0 568.1 L 315.2 590.8 L 493.5 767.0 L 496.5 767.0 L 519.2 744.3 L 519.2 741.2 L 343.1 567.1 L 341.0 541.4 L 343.1 462.0 L 519.2 282.8 Z
M 336.9 159.2 L 346.1 159.2 L 408.0 221.0 L 408.0 230.3 L 346.1 292.1 L 336.9 292.1 L 275.1 229.2 L 275.1 221.0 Z
M 336.9 735.0 L 346.1 735.0 L 406.9 796.8 L 405.9 805.1 L 346.1 865.9 L 334.8 863.8 L 277.1 805.1 L 277.1 795.8 Z" fill="currentColor" fill-rule="evenodd" clip-rule="evenodd"/>
<g fill="none" stroke="currentColor" stroke-width="34" stroke-linecap="round" stroke-linejoin="round">
<path d="M574 436 L646 466 V518 C646 570 616 612 574 636 C532 612 502 570 502 518 V466 Z"/>
<path d="M538 520 L566 548 L624 492"/>
</g>
  </symbol>
  <symbol id="copilot-hub-users" viewBox="0 0 1024 1024">
    <title>Copilot Hub Users icon</title>
    <path d="M 383.2 81.9 L 369.8 85.0 L 356.5 93.3 L 250.3 201.4 L 244.2 214.8 L 243.1 232.3 L 249.3 247.8 L 316.3 315.8 L 333.8 324.0 L 349.2 324.0 L 362.6 318.9 L 432.7 249.8 L 438.9 238.5 L 440.9 221.0 L 435.8 205.5 L 369.8 138.6 L 369.8 132.4 L 381.2 120.0 L 388.4 118.0 L 451.2 118.0 L 457.4 120.0 L 744.8 410.5 L 744.8 612.4 L 741.7 619.6 L 461.5 901.9 L 454.3 905.0 L 386.3 905.0 L 370.9 892.6 L 374.0 882.3 L 429.6 826.7 L 437.8 811.3 L 438.9 795.8 L 431.6 777.3 L 361.6 707.2 L 347.2 702.1 L 335.8 702.1 L 321.4 707.2 L 249.3 781.4 L 245.2 792.7 L 245.2 807.1 L 250.3 821.6 L 358.5 931.8 L 381.2 941.0 L 459.5 941.0 L 471.8 938.0 L 484.2 930.7 L 773.7 637.2 L 779.8 620.7 L 779.8 404.4 L 771.6 383.7 L 483.2 93.3 L 469.8 85.0 L 456.4 81.9 Z
M 493.5 257.0 L 312.2 443.5 L 306.0 462.0 L 306.0 568.1 L 315.2 590.8 L 493.5 767.0 L 496.5 767.0 L 519.2 744.3 L 519.2 741.2 L 343.1 567.1 L 341.0 541.4 L 343.1 462.0 L 519.2 282.8 Z
M 336.9 159.2 L 346.1 159.2 L 408.0 221.0 L 408.0 230.3 L 346.1 292.1 L 336.9 292.1 L 275.1 229.2 L 275.1 221.0 Z
M 336.9 735.0 L 346.1 735.0 L 406.9 796.8 L 405.9 805.1 L 346.1 865.9 L 334.8 863.8 L 277.1 805.1 L 277.1 795.8 Z" fill="currentColor" fill-rule="evenodd" clip-rule="evenodd"/>
<g fill="none" stroke="currentColor" stroke-width="34" stroke-linecap="round" stroke-linejoin="round">
<circle cx="544" cy="482" r="22"/>
<circle cx="616" cy="482" r="22"/>
<path d="M500 584 C510 540 588 540 596 584"/>
<path d="M584 584 C592 540 668 540 678 584"/>
</g>
  </symbol>
  <symbol id="copilot-hub-notifications" viewBox="0 0 1024 1024">
    <title>Copilot Hub Notifications icon</title>
    <path d="M 383.2 81.9 L 369.8 85.0 L 356.5 93.3 L 250.3 201.4 L 244.2 214.8 L 243.1 232.3 L 249.3 247.8 L 316.3 315.8 L 333.8 324.0 L 349.2 324.0 L 362.6 318.9 L 432.7 249.8 L 438.9 238.5 L 440.9 221.0 L 435.8 205.5 L 369.8 138.6 L 369.8 132.4 L 381.2 120.0 L 388.4 118.0 L 451.2 118.0 L 457.4 120.0 L 744.8 410.5 L 744.8 612.4 L 741.7 619.6 L 461.5 901.9 L 454.3 905.0 L 386.3 905.0 L 370.9 892.6 L 374.0 882.3 L 429.6 826.7 L 437.8 811.3 L 438.9 795.8 L 431.6 777.3 L 361.6 707.2 L 347.2 702.1 L 335.8 702.1 L 321.4 707.2 L 249.3 781.4 L 245.2 792.7 L 245.2 807.1 L 250.3 821.6 L 358.5 931.8 L 381.2 941.0 L 459.5 941.0 L 471.8 938.0 L 484.2 930.7 L 773.7 637.2 L 779.8 620.7 L 779.8 404.4 L 771.6 383.7 L 483.2 93.3 L 469.8 85.0 L 456.4 81.9 Z
M 493.5 257.0 L 312.2 443.5 L 306.0 462.0 L 306.0 568.1 L 315.2 590.8 L 493.5 767.0 L 496.5 767.0 L 519.2 744.3 L 519.2 741.2 L 343.1 567.1 L 341.0 541.4 L 343.1 462.0 L 519.2 282.8 Z
M 336.9 159.2 L 346.1 159.2 L 408.0 221.0 L 408.0 230.3 L 346.1 292.1 L 336.9 292.1 L 275.1 229.2 L 275.1 221.0 Z
M 336.9 735.0 L 346.1 735.0 L 406.9 796.8 L 405.9 805.1 L 346.1 865.9 L 334.8 863.8 L 277.1 805.1 L 277.1 795.8 Z" fill="currentColor" fill-rule="evenodd" clip-rule="evenodd"/>
<g fill="none" stroke="currentColor" stroke-width="34" stroke-linecap="round" stroke-linejoin="round">
<path d="M516 574 H650 L626 538 V500 C626 466 604 444 574 444 C544 444 522 466 522 500 V538 Z"/>
<path d="M552 608 C562 626 588 626 598 608"/>
</g>
  </symbol>
</svg>
